<?xml version="1.0" encoding="utf-8"?>
<!-- Generator: Adobe Illustrator 25.4.1, SVG Export Plug-In . SVG Version: 6.00 Build 0)  -->
<svg version="1.1" xmlns="http://www.w3.org/2000/svg" xmlns:xlink="http://www.w3.org/1999/xlink" x="0px" y="0px"
	 viewBox="0 0 14400 14400" style="enable-background:new 0 0 14400 14400;" xml:space="preserve">
<style type="text/css">
	.st0{display:none;}
	.st1{display:inline;stroke:#000000;stroke-miterlimit:10;}
	.st2{fill:#FFFFFF;}
	.st3{font-family:'PartyConfetti-Regular';}
	.st4{font-size:997px;}
	.st5{letter-spacing:-39;}
	.st6{letter-spacing:39;}
	.st7{fill:none;stroke:#FFFFFF;stroke-width:10;stroke-miterlimit:10;}
</style>
<g id="Layer_1" class="st0">
	<rect x="5568" y="6450" class="st1" width="3264" height="1500"/>
</g>
<g id="Layer_2">
</g>
<g id="Layer_3">
	<text transform="matrix(1 0 0 1 5769.2334 7491.5752)"><tspan x="0" y="0" class="st2 st3 st4">H</tspan><tspan x="509.45" y="0" class="st2 st3 st4 st5">A</tspan><tspan x="953.1" y="0" class="st2 st3 st4 st6">V</tspan><tspan x="1502.44" y="0" class="st2 st3 st4">E</tspan></text>
	<text transform="matrix(1 0 0 1 7832.4995 7515.5957)" class="st2 st3 st4">IT</text>
	<g id="XMLID_00000011721139576562630280000005804271064175176343_">
		<g>
			<path class="st2" d="M8556.65,7652.84c0.88-0.08,1.76-0.17,2.63-0.28c-10.79,36.1-45.95,61.09-84.87,57.69l-286.99-25.11
				L8556.65,7652.84z"/>
			<path class="st2" d="M7818.19,6770.18c-0.88,0.08-1.76,0.17-2.63,0.28c10.79-36.1,45.95-61.09,84.87-57.69l286.99,25.11
				L7818.19,6770.18z"/>
			<path class="st2" d="M8562.36,6786.58c-0.49-5.57-1.53-10.96-3.08-16.12c43.16,5.18,74.99,44.07,71.18,87.68l-30.92,353.37
				L8562.36,6786.58z"/>
			<path class="st2" d="M7812.48,7636.44c0.49,5.57,1.53,10.96,3.08,16.12c-43.16-5.18-74.99-44.07-71.18-87.68l30.92-353.37
				L7812.48,7636.44z"/>
		</g>
		<g>
			<path class="st7" d="M8559.28,6770.46c43.16,5.18,74.99,44.07,71.18,87.68l-30.92,353.37"/>
			<path class="st7" d="M7815.56,6770.46c10.79-36.1,45.95-61.09,84.87-57.69l286.99,25.11"/>
			<path class="st7" d="M7815.56,7652.56c-43.16-5.18-74.99-44.07-71.18-87.68l30.92-353.37"/>
			<path class="st7" d="M8559.28,7652.56c-10.79,36.1-45.95,61.09-84.87,57.69l-286.99-25.11"/>
			<path class="st7" d="M7744.38,6858.14c-3.81-43.6,28.02-82.5,71.18-87.68c0.87-0.11,1.75-0.2,2.63-0.28l369.23-32.3l286.99-25.11
				c38.92-3.4,74.08,21.59,84.87,57.69c1.55,5.16,2.59,10.55,3.08,16.12l37.18,424.93l30.92,353.37
				c3.81,43.6-28.02,82.5-71.18,87.68c-0.87,0.11-1.75,0.2-2.63,0.28l-369.23,32.3l-286.99,25.11
				c-38.92,3.4-74.08-21.59-84.87-57.69c-1.55-5.16-2.59-10.55-3.08-16.12l-37.18-424.93L7744.38,6858.14"/>
		</g>
	</g>
</g>
</svg>
