<svg id="Layer_1" data-name="Layer 1" xmlns="http://www.w3.org/2000/svg" viewBox="0 0 2584.41 2904.69"><defs><style>.cls-1{fill:#fff;}.cls-2{fill:#4b77ff;}.cls-3{fill:none;stroke:#fff;stroke-miterlimit:10;stroke-width:10px;}</style></defs><path class="cls-1" d="M8412.6,5944.06a81.39,81.39,0,0,1,73.79,87.94L8384.25,7199.5,8277.37,5977.92a231.62,231.62,0,0,0-8.91-46.48Z" transform="translate(-5907.29 -5747.14)"/><path class="cls-2" d="M8473.14,8215.36c10.81,123.7-78.17,234.24-199.77,251.43L8384.25,7199.5Z" transform="translate(-5907.29 -5747.14)"/><path class="cls-2" d="M8277.37,5977.92,8384.25,7199.5,8273.37,8466.79c-4.11.6-8.25,1.06-12.42,1.44l-1061.37,92.85-1069-93.51a231.85,231.85,0,0,1-8.91-46.49L6014.74,7199.5l110.89-1267.29c4.11-.6,8.25-1.06,12.41-1.43l1061.49-92.86,1068.93,93.52A231.62,231.62,0,0,1,8277.37,5977.92Z" transform="translate(-5907.29 -5747.14)"/><path class="cls-1" d="M8273.37,8466.79l-9.26,105.94a81.38,81.38,0,0,1-88,73.79l-976.57-85.44L8261,8468.23C8265.12,8467.85,8269.26,8467.39,8273.37,8466.79Z" transform="translate(-5907.29 -5747.14)"/><path class="cls-2" d="M8268.46,5931.44l-1068.93-93.52,825-72.19C8136.36,5756,8237.41,5827.74,8268.46,5931.44Z" transform="translate(-5907.29 -5747.14)"/><path class="cls-2" d="M7199.58,8561.08l-825.09,72.19c-111.85,9.77-212.9-62-243.95-165.7Z" transform="translate(-5907.29 -5747.14)"/><path class="cls-1" d="M7199.53,5837.92,6138,5930.78c-4.16.37-8.3.83-12.41,1.43l9.25-105.93a81.44,81.44,0,0,1,88-73.83Z" transform="translate(-5907.29 -5747.14)"/><path class="cls-1" d="M6130.54,8467.57,5986.4,8455c-44.47-3.89-77.71-43.47-73.8-87.94L6014.74,7199.5l106.89,1221.58A231.85,231.85,0,0,0,6130.54,8467.57Z" transform="translate(-5907.29 -5747.14)"/><path class="cls-2" d="M6125.63,5932.21,6014.74,7199.5l-88.88-1015.86C5915.05,6059.91,6004,5949.4,6125.63,5932.21Z" transform="translate(-5907.29 -5747.14)"/><path class="cls-3" d="M8268.46,5931.44l144.14,12.62a81.39,81.39,0,0,1,73.79,87.94L8384.25,7199.5" transform="translate(-5907.29 -5747.14)"/><path class="cls-3" d="M6125.63,5932.21l9.25-105.93a81.44,81.44,0,0,1,88-73.83l976.68,85.47" transform="translate(-5907.29 -5747.14)"/><path class="cls-3" d="M6130.54,8467.57,5986.4,8455c-44.47-3.89-77.71-43.47-73.8-87.94L6014.74,7199.5" transform="translate(-5907.29 -5747.14)"/><path class="cls-3" d="M8273.37,8466.79l-9.26,105.94a81.38,81.38,0,0,1-88,73.79l-976.57-85.44" transform="translate(-5907.29 -5747.14)"/><path class="cls-3" d="M5925.86,6183.64c-10.81-123.73,78.16-234.24,199.77-251.43,4.11-.6,8.25-1.06,12.41-1.43l1061.49-92.86,825-72.19c111.83-9.77,212.88,62,243.93,165.71a231.62,231.62,0,0,1,8.91,46.48L8384.25,7199.5l88.89,1015.86c10.81,123.7-78.17,234.24-199.77,251.43-4.11.6-8.25,1.06-12.42,1.44l-1061.37,92.85-825.09,72.19c-111.85,9.77-212.9-62-243.95-165.7a231.85,231.85,0,0,1-8.91-46.49L6014.74,7199.5l-88.88-1015.86" transform="translate(-5907.29 -5747.14)"/><path class="cls-1" d="M6190.89,6549.86l49.28-5.54q24.9-2.76,48.31-4.46,40.37-2.88,68,2.59t29.4,29.87q.45,6.36,3.35,32.8t6.12,64q3.21,37.61,6.9,81.56t4.53,85.46l40-2.86,29.33-2.1q13.86-1,29.29-2.6t39.89-4.36q-2.59-36.19-6-83.58t-7-90.49q-3.6-43.07-6.29-73.92t-2.94-34.05q-.69-9.59,8.44-16.66a79.93,79.93,0,0,1,22.17-11.76,173.63,173.63,0,0,1,27.3-7.29,226.24,226.24,0,0,1,23.85-3.33,193.25,193.25,0,0,1,23.54-.07,103.31,103.31,0,0,1,24.38,4.13,48.78,48.78,0,0,1,19.5,10.92,27.85,27.85,0,0,1,8.87,19.16q11,153.31,20,306.75t20,307.83q2.59,36.21-20.1,48.53t-55.72,14.68a131.36,131.36,0,0,1-20.4-.67,94.42,94.42,0,0,1-25.62-6.2,61.49,61.49,0,0,1-22.54-15.52q-9.87-10.53-11.15-28.65-1-13.85-3.4-40.46t-5.22-58.52q-2.83-31.92-5.23-65.49t-3.4-62.4L6413.86,6949q2.74,38.37,5.3,74.05t5.23,66q2.67,30.33,4.39,54.31t2.71,37.81q3.51,49-87.12,55.5-7.48.54-18.75.28a64,64,0,0,1-21.74-4.32,41.64,41.64,0,0,1-18.17-14.19q-7.68-10.14-9.05-29.29l-11.19-156.28-21.31-311.59-3.2-44.65-39,2.79q-23.19,1.65-30.78-15.42t-9.47-43.66q-2.81-39.32,5.77-53.83T6190.89,6549.86Z" transform="translate(-5907.29 -5747.14)"/><path class="cls-1" d="M6854.46,7206.14q-38.32,2.74-66.26-6.48t-29-24.13q-.54-7.44,3.25-36.61t10.83-73q7-43.83,15.91-99t19.17-113.15q10.28-58,20.62-115.41t19.68-106.26l-51.3.67q-32.08.18-47.06-14.74t-17.4-48.82a173.27,173.27,0,0,1,.76-34.14,108.84,108.84,0,0,1,7.08-28.21q5-12.06,12.55-19a23.24,23.24,0,0,1,17.17-6.56l277-.58c5-.36,9.39,1.83,13.3,6.53s7.59,11.21,11,19.52,6.78,17.7,10,28.15,6.33,21.29,9.28,32.48q9.95,34.57,25.74,90.66t34.31,120.51q18.52,64.43,37.65,129.9t33.66,118.94l25.74,1.17q15.08,1.08,22.64,24.66a224.65,224.65,0,0,1,9.64,52.43q1.45,20.3-3,32.41a37.79,37.79,0,0,1-14.17,18.72q-9.69,6.59-23.45,8.66t-30.78,3.27a285.84,285.84,0,0,1-35.28.4,223.73,223.73,0,0,1-35.65-4.95,48.35,48.35,0,0,1-27.3-15.17,116.41,116.41,0,0,1-19.24-29.65,241.37,241.37,0,0,1-14-39.15q-5.82-21.52-12.73-43.51-24.49,1.76-50.06,3.08t-62.83,4l-9.57.68-9.59.69a99.35,99.35,0,0,0-12.69,1.91q-1.31,11.89-2.32,27.52t-2.5,32.34q-1.47,16.74-3.06,31.84a181.3,181.3,0,0,1-4.1,25q-4.78,22.84-15.37,31.66T6854.46,7206.14Zm186.41-280q-9.07-36.77-17.35-70.4t-16.47-65.63q-8.16-32-16.42-65.12t-17.3-69.86q-6.24,47.49-12.1,85.33t-11,70.29q-5.17,32.44-9.46,62.15t-7.39,60.93Z" transform="translate(-5907.29 -5747.14)"/><path class="cls-1" d="M7371.5,7136.21q-5-10.3-16-43.72T7330,7012.08q-14.59-47-31.49-103.5t-33.27-113.53q-16.39-57-31.44-110.44t-25.47-94.31l-28.74,2.05q-43.65,3.13-45-61.11-1.14-31,8-45.07t27.18-16.43l69.91-9.69c4.2-1.06,8.58-2,13.17-2.68s9.71-1.29,15.4-1.7a271.4,271.4,0,0,1,43.36.64q23.15,2.11,33.27,23.83,3.8,8.31,10.68,37.22t15.74,70.56q8.85,41.61,20.05,93.23t23.15,106.4q11.93,54.78,24.37,109T7463.24,6998q6.43-44.31,13.85-97.8t14.69-108.58q7.29-55.08,14.16-108.52t12.29-97.16q5.43-43.72,8.59-74.43t3.53-40.39q.21-11.76,5-19.08A31,31,0,0,1,7548,6441a69.47,69.47,0,0,1,18.32-5.59q10.56-1.83,22.28-2.67a139.64,139.64,0,0,1,20.91.65,146.92,146.92,0,0,1,27.1,5,69.68,69.68,0,0,1,23.83,11.66q10.18,7.81,11,19.54,1.14,16-4.56,63.44t-15.59,110.77q-9.93,63.31-21.88,135.3t-23.77,138.63q-11.82,66.65-21.3,120.82t-15.11,80.24q-1.62,7.6-11.26,14.71a98,98,0,0,1-24.23,12.44,213.49,213.49,0,0,1-33.07,8.79,336.69,336.69,0,0,1-37.63,4.82,213.81,213.81,0,0,1-58-3.32Q7377.9,7150.69,7371.5,7136.21Z" transform="translate(-5907.29 -5747.14)"/><path class="cls-1" d="M7876.76,7124.92a65.3,65.3,0,0,1-28-4.41,84.46,84.46,0,0,1-25.63-15.29,86.9,86.9,0,0,1-18.7-22.75,62.42,62.42,0,0,1-8.31-26.71l-35-488.78q-25.68,6.12-39.19-7.89t-17-63q-2.05-28.72,19.88-44.2t75-23.56l260.49-40q14.82-2.12,29.68,18.74t20.13,49.37q8.81,48.57-36.56,57.17l-163.75,28.85,11,153.25,129.84-9.3q43.62-3.12,47.06,44.73,2.2,30.85-4.55,48.43t-21.66,18.64l-142.62,10.21,12.85,179.54,97.92-7q-7.27-56.62,60.84-61.5,66-4.73,69.5,44.29a126,126,0,0,1-.31,18.22q-.82,10.79-2.16,22.12t-2.2,21.57c-.57,6.83-1.07,12.39-1.46,16.7q-1.6,22.62-11.9,35.66a63.75,63.75,0,0,1-25.34,19.48,142.21,142.21,0,0,1-33.56,9.38q-18.51,2.89-35.54,4.14-27.61,3-56.88,5.07l-61.15,4.38Z" transform="translate(-5907.29 -5747.14)"/><path class="cls-1" d="M7105.67,7323.32a20.41,20.41,0,0,1,15.34,5.32,45.22,45.22,0,0,1,11.3,15.76,103.83,103.83,0,0,1,6.91,22,178.55,178.55,0,0,1,3.25,22.77,104.45,104.45,0,0,1-6.95,44.89q-8.54,22.56-30.89,24.14l-26.6,1.91q2.43,34.07,4.87,68.1t3.88,68.17l9.06,154.45q1.8,39.44,4.56,77.75t5.56,77.67l35.13-2.51q22.35-1.6,34,19.49a104.41,104.41,0,0,1,13.28,43.43,179.19,179.19,0,0,1,0,23,102.74,102.74,0,0,1-3.71,22.73,45.41,45.41,0,0,1-8.93,17.21,20.54,20.54,0,0,1-14.45,7.46l-235,10.4q-27.69,2-37.63-47.51-17.43-78.88,30.48-82.31l33-2.36q-2.67-37.27-5.22-72.93t-4.23-73l-9.44-159.85q-1.45-34.12-3.88-68.2t-4.88-68.16l-41.5,3q-47.91,3.44-41.9-77.09,2.81-50.46,30.48-52.45Z" transform="translate(-5907.29 -5747.14)"/><path class="cls-1" d="M7210.13,7456.63q-9.59.69-16.38-4.73t-12.32-15.22a87.21,87.21,0,0,1-8.6-23,167.07,167.07,0,0,1-4-26q-1.76-24.56,3.73-44.82t20.4-21.33l39.39-2.82q26.6-1.9,60.12-4.93t70.33-6.29q36.79-3.24,70.34-6.29t60.12-5.55q26.55-2.52,39.33-3.45,19.08-2.42,30.77,18.87t13.62,48.13q1.92,26.86-7.19,49.11t-30.39,23.76q-14.92,1.08-32,1.23t-51,4.72q7.35,130.8,16.49,258.26t18.48,258.12q2.6,36.12-17.51,47.7T7420.67,8016q-34.17,2.45-56.56-10.36t-24.35-40.45q-9-125.34-16.35-257.22t-18.55-258.15Z" transform="translate(-5907.29 -5747.14)"/></svg>