<?xml version="1.0" encoding="utf-8"?>
<!-- Generator: Adobe Illustrator 25.4.1, SVG Export Plug-In . SVG Version: 6.00 Build 0)  -->
<svg version="1.1" id="Layer_1" xmlns="http://www.w3.org/2000/svg" xmlns:xlink="http://www.w3.org/1999/xlink" x="0px" y="0px"
	 viewBox="0 0 3264 3264" style="enable-background:new 0 0 3264 3264;" xml:space="preserve">
<style type="text/css">
	.st0{fill:#FFFFFF;}
	.st1{fill:#4B77FF;}
	.st2{fill:none;stroke:#FFFFFF;stroke-width:10;stroke-miterlimit:10;}
	.st3{font-family:'PartyConfetti-Regular';}
	.st4{font-size:1067.1029px;}
	.st5{letter-spacing:-42;}
	.st6{letter-spacing:42;}
</style>
<g id="XMLID_00000011721139576562630280000005804271064175176343_">
	<g>
		<path class="st0" d="M2845.1,376.56c44.47,3.88,77.71,43.47,73.8,87.94L2816.75,1632L2709.87,410.42
			c-1.41-16.04-4.43-31.59-8.91-46.49L2845.1,376.56z"/>
		<path class="st1" d="M2905.64,2647.86c10.81,123.7-78.17,234.24-199.77,251.43L2816.75,1632L2905.64,2647.86z"/>
		<path class="st1" d="M2709.87,410.42L2816.75,1632l-110.88,1267.29c-4.11,0.6-8.25,1.06-12.42,1.44l-1061.37,92.86l-1069.04-93.52
			c-4.48-14.89-7.5-30.44-8.91-46.49L447.24,1632L558.13,364.71c4.11-0.6,8.25-1.06,12.42-1.44l1061.48-92.86l1068.93,93.52
			C2705.44,378.83,2708.46,394.38,2709.87,410.42z"/>
		<path class="st0" d="M2705.87,2899.29l-9.26,105.94c-3.88,44.5-43.47,77.71-87.97,73.8l-976.56-85.44l1061.37-92.86
			C2697.62,2900.35,2701.76,2899.89,2705.87,2899.29z"/>
		<path class="st1" d="M2700.96,363.94l-1068.93-93.52l825-72.19C2568.86,188.46,2669.91,260.24,2700.96,363.94z"/>
		<path class="st1" d="M1632.08,2993.58l-825.09,72.19c-111.86,9.77-212.91-62.01-243.95-165.7L1632.08,2993.58z"/>
		<path class="st0" d="M1632.03,270.42L570.54,363.28c-4.17,0.37-8.31,0.83-12.42,1.44l9.26-105.94
			c3.88-44.5,43.47-77.71,87.97-73.82L1632.03,270.42z"/>
		<path class="st0" d="M563.04,2900.07l-144.14-12.62c-44.47-3.88-77.71-43.47-73.8-87.94L447.24,1632l106.88,1221.58
			C555.54,2869.62,558.56,2885.17,563.04,2900.07z"/>
		<path class="st1" d="M558.13,364.71L447.24,1632L358.36,616.14C347.55,492.41,436.52,381.9,558.13,364.71z"/>
	</g>
	<g>
		<path class="st2" d="M2700.96,363.94l144.14,12.62c44.47,3.88,77.71,43.47,73.8,87.94L2816.75,1632"/>
		<path class="st2" d="M558.13,364.71l9.26-105.94c3.88-44.5,43.47-77.71,87.97-73.82l976.68,85.47"/>
		<path class="st2" d="M563.04,2900.07l-144.14-12.62c-44.47-3.88-77.71-43.47-73.8-87.94L447.24,1632"/>
		<path class="st2" d="M2705.87,2899.29l-9.26,105.94c-3.88,44.5-43.47,77.71-87.97,73.8l-976.56-85.44"/>
		<path class="st2" d="M358.36,616.14c-10.81-123.73,78.17-234.24,199.77-251.43c4.11-0.6,8.25-1.06,12.42-1.44l1061.48-92.86
			l825-72.19c111.83-9.77,212.88,62.01,243.92,165.7c4.48,14.89,7.5,30.44,8.91,46.49L2816.75,1632l88.89,1015.86
			c10.81,123.7-78.17,234.24-199.77,251.43c-4.11,0.6-8.25,1.06-12.42,1.44l-1061.37,92.86l-825.09,72.19
			c-111.86,9.77-212.91-62.01-243.95-165.7c-4.48-14.89-7.5-30.44-8.91-46.49L447.24,1632L358.36,616.14"/>
	</g>
</g>
<text transform="matrix(0.9974 -0.0714 0.0714 0.9974 624.7106 1660.9746)"><tspan x="0" y="0" class="st0 st3 st4">H</tspan><tspan x="545.27" y="0" class="st0 st3 st4 st5">A</tspan><tspan x="1020.12" y="0" class="st0 st3 st4 st6">V</tspan><tspan x="1608.08" y="0" class="st0 st3 st4">E</tspan><tspan x="627.97" y="856.25" class="st0 st3 st4">IT</tspan></text>
</svg>
